<svg width="84" height="15" viewBox="0 0 84 15" fill="none" xmlns="http://www.w3.org/2000/svg">
<g clip-path="url(#clip0_2364_5108)">
<path d="M16.9534 4.18771C13.9019 4.18771 11.5176 6.50338 11.5176 9.60338C11.5176 12.7034 13.8417 14.9992 16.9534 14.9992C20.0652 14.9992 22.4297 12.6638 22.4297 9.58357C22.4297 6.5232 20.1056 4.18771 16.9534 4.18771ZM16.974 12.7651C15.2363 12.7651 13.9629 11.416 13.9629 9.60415C13.9629 7.77174 15.2157 6.42334 16.9534 6.42334C18.7117 6.42334 19.9844 7.79232 19.9844 9.60415C19.9844 11.416 18.7117 12.7651 16.974 12.7651ZM23.0961 6.54378H24.612V14.7988H27.0367V4.38894H23.0961V6.54378ZM5.41527 6.42258C6.68865 6.42258 7.69896 7.20768 8.0825 8.37543H10.6491C10.1839 5.87911 8.12291 4.18771 5.43586 4.18771C2.38434 4.18771 0 6.50338 0 9.60415C0 12.7049 2.3241 15 5.43586 15C8.06267 15 10.1641 13.3086 10.6292 10.7917H8.0825C7.71878 11.9594 6.70847 12.7651 5.4351 12.7651C3.67677 12.7651 2.44457 11.416 2.44457 9.60415C2.44534 7.77174 3.65771 6.42258 5.41527 6.42258ZM69.1679 8.59724L67.3897 8.33579C66.541 8.21536 65.9349 7.93333 65.9349 7.26866C65.9349 6.54378 66.7233 6.18172 67.7938 6.18172C68.9658 6.18172 69.7138 6.68479 69.8755 7.51029H72.2194C71.9563 5.41643 70.3398 4.18848 67.8548 4.18848C65.2883 4.18848 63.5909 5.49723 63.5909 7.34946C63.5909 9.12089 64.7027 10.1484 66.9452 10.47L68.7233 10.7315C69.5926 10.8519 70.0775 11.1949 70.0775 11.839C70.0775 12.6645 69.2289 13.0068 68.0569 13.0068C66.6219 13.0068 65.8136 12.4229 65.6924 11.5372H63.3081C63.5307 13.5708 65.1266 15 68.0363 15C70.6837 15 72.4413 13.7919 72.4413 11.7178C72.4413 9.86559 71.1687 8.89908 69.1679 8.59724ZM25.8243 0.100615C24.9353 0.100615 24.2681 0.744702 24.2681 1.63042C24.2681 2.51613 24.9345 3.16022 25.8243 3.16022C26.7134 3.16022 27.3806 2.51613 27.3806 1.63042C27.3806 0.744702 26.7134 0.100615 25.8243 0.100615ZM61.4087 7.95315C61.4087 5.69846 60.0346 4.18848 57.1249 4.18848C54.3769 4.18848 52.8412 5.57803 52.5377 7.71228H54.9427C55.0639 6.88678 55.7105 6.2023 57.0845 6.2023C58.3175 6.2023 58.9237 6.74577 58.9237 7.41044C58.9237 8.27634 57.812 8.49738 56.4379 8.6384C54.579 8.83963 52.2754 9.48371 52.2754 11.9C52.2754 13.7728 53.6701 14.9802 55.8927 14.9802C57.6305 14.9802 58.7216 14.2553 59.2676 13.1074C59.3484 14.1341 60.1162 14.7988 61.1875 14.7988H62.602V12.6447H61.4094V7.95315H61.4087ZM59.0243 10.5707C59.0243 11.9602 57.812 12.9869 56.3365 12.9869C55.4269 12.9869 54.659 12.6043 54.659 11.7994C54.659 10.7727 55.892 10.4906 57.0235 10.3702C58.1147 10.2696 58.7209 10.0279 59.0243 9.56451V10.5707ZM46.1526 4.18771C44.7984 4.18771 43.6668 4.75177 42.8586 5.6977V0H40.4338V14.7988H42.8182V13.4298C43.6264 14.4161 44.7786 15 46.1526 15C49.0623 15 51.2651 12.7049 51.2651 9.60415C51.2651 6.50338 49.0219 4.18771 46.1526 4.18771ZM45.7889 12.7651C44.0511 12.7651 42.7778 11.416 42.7778 9.60415C42.7778 7.79232 44.071 6.42334 45.8087 6.42334C47.567 6.42334 48.7992 7.7725 48.7992 9.60415C48.7992 11.416 47.5266 12.7651 45.7889 12.7651ZM34.6343 4.18771C33.0582 4.18771 32.0273 4.8318 31.4211 5.7381V4.38894H29.0162V14.798H31.4409V9.14071C31.4409 7.54993 32.4512 6.42258 33.9465 6.42258C35.3411 6.42258 36.2096 7.40891 36.2096 8.83886V14.7988H38.6343V8.65821C38.6351 6.03994 37.2817 4.18771 34.6343 4.18771ZM84 9.2619C84 6.28233 81.8177 4.18848 78.8874 4.18848C75.7757 4.18848 73.492 6.52396 73.492 9.60415C73.492 12.8459 75.9373 15 78.9279 15C81.454 15 83.4342 13.5098 83.939 11.3962H81.4128C81.0491 12.3223 80.1601 12.8459 78.9675 12.8459C77.4112 12.8459 76.2393 11.8794 75.977 10.188H83.9992V9.2619H84ZM76.1188 8.45622C76.5031 7.00645 77.5942 6.30215 78.847 6.30215C80.2211 6.30215 81.2718 7.08725 81.5143 8.45622H76.1188Z" fill="#8A8F8F"/>
</g>
<defs>
<clipPath id="clip0_2364_5108">
<rect width="84" height="15" fill="white"/>
</clipPath>
</defs>
</svg>
