<svg width="230" height="51" viewBox="0 0 230 51" fill="none" xmlns="http://www.w3.org/2000/svg">
<g clip-path="url(#clip0_2186_7116)">
<mask id="mask0_2186_7116" style="mask-type:luminance" maskUnits="userSpaceOnUse" x="0" y="0" width="230" height="51">
<path d="M230 0H0V50.9096H230V0Z" fill="white"/>
</mask>
<g mask="url(#mask0_2186_7116)">
<path fill-rule="evenodd" clip-rule="evenodd" d="M16.9531 25.1442L25.5087 11.7149L34.0645 25.1442L25.5087 30.0272L16.9531 25.1442Z" fill="#767676"/>
<path fill-rule="evenodd" clip-rule="evenodd" d="M16.9531 27.4377L25.5087 32.3213L34.0645 27.4377L25.5087 39.0355L16.9531 27.4377Z" fill="#767676"/>
<path fill-rule="evenodd" clip-rule="evenodd" d="M29.3996 6.26725C28.0709 6.88652 26.7771 7.57802 25.5241 8.33863C24.2632 7.56951 22.9583 6.87468 21.6162 6.25771C22.8689 5.41189 24.1635 4.62955 25.4951 3.91364C26.8345 4.63379 28.1375 5.41927 29.3996 6.26725Z" fill="#767676"/>
<path fill-rule="evenodd" clip-rule="evenodd" d="M47.669 3.24132C42.9722 -1.44936 34.4138 -0.889037 25.4951 3.91365C26.8343 4.63381 28.1375 5.4193 29.3996 6.26726C32.8522 4.67252 36.1411 3.81756 38.9268 3.81756C41.4176 3.81756 43.5076 4.49975 44.9565 5.94685C48.0305 9.01734 47.6653 14.9601 44.6392 21.4889C45.4872 22.7501 46.2735 24.0514 46.9952 25.3886C51.8039 16.4811 52.3649 7.93201 47.6683 3.24132H47.669Z" fill="#767676"/>
<path fill-rule="evenodd" clip-rule="evenodd" d="M29.3999 6.26733C28.0713 6.88661 26.7775 7.57811 25.5244 8.33871C32.4503 12.6182 38.2819 18.4516 42.5559 25.376C43.3198 24.1187 44.0153 22.8211 44.6393 21.4889C42.6149 18.4956 40.3059 15.7045 37.7443 13.1544C35.1935 10.5933 32.3987 8.2867 29.3996 6.26733H29.3999Z" fill="#767676"/>
<path fill-rule="evenodd" clip-rule="evenodd" d="M46.9951 25.3886C46.2751 26.7212 45.4899 28.0177 44.6422 29.2731C44.0185 27.9369 43.3219 26.6361 42.5557 25.3762C43.3196 24.119 44.0151 22.8215 44.639 21.4892C45.4869 22.7504 46.2732 24.0518 46.9951 25.3889V25.3886Z" fill="#767676"/>
<path fill-rule="evenodd" clip-rule="evenodd" d="M44.6428 29.2724C44.019 27.9365 43.3224 26.6356 42.5562 25.3759C40.4381 28.8358 37.9121 32.0295 35.0325 34.8887C32.1756 37.7665 28.9835 40.2916 25.5244 42.4099C26.7761 43.1729 28.0699 43.8646 29.3999 44.4813C32.399 42.462 35.1936 40.1553 37.7443 37.5942C40.3073 35.0491 42.6174 32.2621 44.6428 29.2724Z" fill="#767676"/>
<path fill-rule="evenodd" clip-rule="evenodd" d="M49.7422 31.8116C49.031 29.5889 48.1112 27.4385 46.9949 25.3887C46.275 26.7211 45.4898 28.0172 44.6422 29.2725C47.6653 35.798 48.0307 41.7341 44.9562 44.8014C41.8822 47.872 35.9356 47.5041 29.3993 44.4814C29.1302 44.6641 28.8609 44.8399 28.5915 45.0128C27.5841 45.6611 26.5511 46.269 25.4951 46.8347C30.2426 49.3928 34.8876 50.7475 38.9043 50.7475C42.4303 50.7475 45.4726 49.7037 47.6683 47.5104C51.1047 44.078 51.8387 38.5036 49.7422 31.8116Z" fill="#767676"/>
<path fill-rule="evenodd" clip-rule="evenodd" d="M29.3996 44.4813C29.1305 44.664 28.8612 44.8398 28.5918 45.0128C27.5844 45.6611 26.5514 46.2689 25.4954 46.8347C24.1645 46.1176 22.8699 45.3354 21.6162 44.4908C22.9583 43.8739 24.2632 43.179 25.5241 42.4099C26.776 43.1729 28.0697 43.8644 29.3996 44.4813Z" fill="#767676"/>
<path fill-rule="evenodd" clip-rule="evenodd" d="M17.9174 45.9255C12.6471 47.5744 8.43507 47.1741 6.05956 44.8014C3.68406 42.4291 3.28363 38.2216 4.9344 32.9579C5.33309 31.6981 5.81169 30.465 6.36729 29.266C5.52293 28.0132 4.73984 26.7203 4.02078 25.3918C2.90573 27.4406 1.98706 29.5901 1.27703 31.8116C-0.82228 38.5036 -0.0851328 44.0779 3.34766 47.5104C5.50209 49.6588 8.49623 50.7505 12.08 50.7505C14.4532 50.7146 16.8072 50.3197 19.0618 49.5787C21.2881 48.8682 23.4423 47.9495 25.4956 46.8347C24.1648 46.1176 22.8702 45.3354 21.6167 44.4908C20.4158 45.0478 19.1802 45.527 17.9177 45.9255H17.9174Z" fill="#767676"/>
<path fill-rule="evenodd" clip-rule="evenodd" d="M21.616 44.4908C22.9581 43.8739 24.263 43.179 25.5238 42.4099C22.0533 40.2941 18.8503 37.7689 15.9839 34.8886C13.1002 32.0257 10.572 28.8265 8.45376 25.36C7.68395 26.621 6.98728 27.9251 6.36719 29.266C8.39579 32.2578 10.7092 35.0469 13.2752 37.5942C15.8241 40.1587 18.6177 42.4686 21.616 44.4908Z" fill="#767676"/>
<path fill-rule="evenodd" clip-rule="evenodd" d="M8.4539 25.36C7.68409 26.6211 6.98743 27.9252 6.36734 29.266C5.52285 28.0132 4.73966 26.7203 4.02051 25.3918C4.74188 24.0527 5.52937 22.7501 6.38008 21.4889C6.9976 22.8173 7.68997 24.1098 8.4539 25.36Z" fill="#767676"/>
<path fill-rule="evenodd" clip-rule="evenodd" d="M6.05937 5.94686C8.43486 3.57447 12.6472 3.17421 17.9172 4.82623C19.1791 5.22498 20.4147 5.70298 21.6162 6.25743C22.8689 5.41171 24.1635 4.62948 25.4951 3.91366C23.4424 2.79742 21.2882 1.87861 19.0613 1.16964C12.3649 -0.924022 6.78409 -0.190923 3.34747 3.24134C1.15164 5.4346 0.106445 8.47326 0.106445 11.9956C0.106445 16.0076 1.46255 20.6502 4.02059 25.3922C4.74195 24.053 5.52945 22.7504 6.38016 21.4892C3.35384 14.9601 2.98527 9.01735 6.05937 5.94686Z" fill="#767676"/>
<path fill-rule="evenodd" clip-rule="evenodd" d="M21.6159 6.25745C15.6206 10.3289 10.4509 15.4971 6.37988 21.4889C6.9974 22.8174 7.68978 24.1098 8.4537 25.36C12.739 18.436 18.5842 12.6073 25.5238 8.33871C24.2629 7.56959 22.958 6.87476 21.6159 6.25777V6.25745Z" fill="#767676"/>
<path d="M224.162 35.7339V37.8549C223.792 38.072 223.371 38.1848 222.941 38.1809C221.192 38.2243 219.642 37.06 219.194 35.3666C216.581 38.2258 212.363 38.9389 208.959 37.0969C205.553 35.2546 203.837 31.3295 204.793 27.5743C205.75 23.819 209.134 21.1966 213.004 21.2125C214.106 21.2099 215.199 21.4248 216.221 21.8447C217.24 22.2646 218.168 22.8815 218.95 23.66V21.5385H221.474V33.6125C221.474 35.122 222.248 35.7339 223.145 35.7339H224.162ZM218.95 29.6969C218.95 26.4077 216.287 23.7413 213.004 23.7413C209.719 23.7413 207.057 26.4077 207.057 29.6969C207.057 32.986 209.719 35.6521 213.004 35.6521C216.285 35.6482 218.945 32.9843 218.95 29.6969ZM227.347 13.2578H229.999V38.1823H227.347V13.2578ZM200.817 29.5871C200.818 33.0528 198.762 36.1803 195.605 37.5172C192.446 38.8539 188.803 38.1384 186.368 35.7026V37.8513H183.837V12.7274H186.368V23.4713C188.803 21.0356 192.446 20.3196 195.605 21.6566C198.762 22.9937 200.818 26.1207 200.817 29.5871ZM198.285 29.5871C198.285 26.2551 195.619 23.554 192.327 23.554C189.036 23.554 186.368 26.2551 186.368 29.5867C186.368 32.9187 189.036 35.6199 192.327 35.6199C193.112 35.6216 193.889 35.4666 194.614 35.1643C195.34 34.8618 195.996 34.418 196.546 33.8588C197.667 32.7198 198.293 31.1844 198.285 29.5871ZM162.083 29.6972C162.083 25.0113 165.884 21.2125 170.573 21.2125C175.261 21.2125 179.062 25.0113 179.062 29.6972C179.062 34.3835 175.261 38.1823 170.573 38.1823C169.457 38.1831 168.353 37.9642 167.323 37.538C166.292 37.1119 165.355 36.4871 164.567 35.6991C163.779 34.9108 163.154 33.975 162.727 32.9451C162.301 31.9153 162.082 30.8117 162.083 29.6972ZM176.532 29.6972C176.532 26.4081 173.864 23.7417 170.573 23.7417C167.281 23.7417 164.613 26.4081 164.613 29.6975C164.613 32.9866 167.281 35.653 170.573 35.653C173.862 35.6492 176.527 32.9851 176.532 29.6972ZM149.349 24.6295V25.3683C149.392 31.767 144.773 37.2029 138.561 38.0651C132.349 38.9274 126.476 34.9476 124.843 28.7694C123.21 22.5915 126.326 16.1368 132.12 13.6938C137.914 11.2501 144.585 13.5782 147.7 19.1308L145.489 20.4031C143.135 16.1584 138.132 14.2563 133.631 15.8947C129.13 17.5333 126.435 22.238 127.244 27.0449C128.053 31.8519 132.132 35.3692 136.91 35.3807C141.689 35.392 145.783 31.8949 146.615 27.0919H136.926V24.6295H149.348H149.349ZM154.654 13.2575H157.308V38.1823H154.654V13.2578V13.2575ZM120.166 13.2575V38.1823H114.819V28.1295H104.86V38.1823H99.473V13.2578H104.86V23.2689H114.819V13.2578H120.166V13.2575ZM97.3507 18.1182H91.2586V38.1823H85.9737V18.1182H79.8411V13.2578H97.3507V18.1182ZM68.825 18.0768V23.3108H76.891V28.1295H68.825V33.3637H78.2492V38.1823H63.3926V13.2578H78.2492V18.0761H68.825V18.0768Z" fill="#767676"/>
</g>
</g>
<defs>
<clipPath id="clip0_2186_7116">
<rect width="230" height="51" fill="white"/>
</clipPath>
</defs>
</svg>
