<svg width="88" height="17" viewBox="0 0 88 17" fill="none" xmlns="http://www.w3.org/2000/svg">
<g clip-path="url(#clip0_2364_5112)">
<path d="M13.7574 0L8.40568 3.04623V12.5537L5.45288 14.2501L2.48204 12.5523V9.15797L5.45288 7.47662L7.36311 8.57459V5.8283L5.43623 4.74409L0.0859375 7.82473V13.9186L5.45428 16.9827L10.8046 13.9186V4.4125L13.7754 2.71465L16.7448 4.4125V7.7917L13.7754 9.5047L11.8486 8.3971V11.1296L13.7574 12.2207L19.1604 9.17448V3.04623L13.7574 0Z" fill="#8A8F8F"/>
<path fill-rule="evenodd" clip-rule="evenodd" d="M45.1542 13.1985H47.553V0.166016H45.1542V13.1985ZM29.7321 3.93459C30.8691 3.93459 31.8117 4.38727 32.5572 5.29124C33.3041 6.19519 33.6761 7.31656 33.6761 8.6553C33.6761 9.99405 33.3027 11.1154 32.5572 12.0194C31.8103 12.9233 30.8691 13.376 29.7321 13.376C28.9269 13.376 28.2273 13.1298 27.6359 12.6358C27.0556 12.1308 26.6294 11.4497 26.3559 10.5925V16.7208H23.957V4.11072H26.3559V6.71666C26.628 5.85948 27.0556 5.18391 27.6359 4.69135C28.2287 4.18638 28.9269 3.93459 29.7321 3.93459ZM28.8603 11.209C29.5114 11.209 30.0625 10.9682 30.5123 10.4866C30.9621 9.99405 31.187 9.38315 31.187 8.6553C31.187 7.92745 30.9621 7.33995 30.5123 6.85838C30.0625 6.3658 29.5114 6.11814 28.8603 6.11814C28.137 6.11814 27.5401 6.35893 27.0653 6.8405C26.5919 7.32206 26.3546 7.92608 26.3546 8.65393C26.3546 9.38177 26.5919 9.99268 27.0653 10.4852C27.5387 10.9669 28.137 11.2076 28.8603 11.2076V11.209ZM34.3133 8.6553C34.3133 9.99405 34.7811 11.1154 35.7169 12.0194C36.6525 12.9233 37.82 13.376 39.218 13.376C40.616 13.376 41.7834 12.9233 42.7191 12.0194C43.6549 11.1154 44.1227 9.99405 44.1227 8.6553C44.1227 7.31656 43.6549 6.19519 42.7191 5.29124C41.7834 4.38727 40.616 3.93459 39.218 3.93459C37.82 3.93459 36.6525 4.38727 35.7169 5.29124C34.7811 6.19519 34.3133 7.31656 34.3133 8.6553ZM37.4938 10.4866C37.0315 9.99405 36.8011 9.38315 36.8011 8.6553C36.8011 7.92745 37.0315 7.33995 37.4938 6.85838C37.9561 6.3658 38.5308 6.11814 39.218 6.11814C39.9052 6.11814 40.4799 6.35893 40.9422 6.8405C41.4045 7.32206 41.6349 7.92608 41.6349 8.65393C41.6349 9.38177 41.4045 9.99268 40.9422 10.4852C40.4799 10.9669 39.9052 11.2076 39.218 11.2076C38.5308 11.2076 37.9561 10.9669 37.4938 10.4852V10.4866ZM69.7149 12.0194C68.7793 11.1154 68.3114 9.99405 68.3114 8.6553C68.3114 7.31656 68.7793 6.19519 69.7149 5.29124C70.6506 4.38727 71.8181 3.93459 73.216 3.93459C74.614 3.93459 75.7816 4.38727 76.7172 5.29124C77.6529 6.19519 78.1207 7.31656 78.1207 8.6553C78.1207 9.99405 77.6529 11.1154 76.7172 12.0194C75.7816 12.9233 74.614 13.376 73.216 13.376C71.8181 13.376 70.652 12.9233 69.7149 12.0194ZM70.7977 8.6553C70.7977 9.38315 71.0282 9.99405 71.4905 10.4866C71.9527 10.9682 72.5275 11.209 73.2147 11.209C73.9018 11.209 74.4766 10.9682 74.9389 10.4866C75.4011 9.99405 75.6316 9.38315 75.6316 8.6553C75.6316 7.92745 75.4011 7.32206 74.9389 6.84187C74.4766 6.3603 73.9018 6.11953 73.2147 6.11953C72.5275 6.11953 71.9527 6.3658 71.4905 6.85975C71.0282 7.34132 70.7977 7.93983 70.7977 8.65668V8.6553ZM84.5053 3.93459C85.5242 3.93459 86.3419 4.28683 86.9569 4.99129C87.5843 5.69575 87.8981 6.59421 87.8981 7.68529V13.1971H85.4993V8.10769C85.4993 7.52019 85.3104 7.03862 84.9301 6.663C84.5511 6.28738 84.0776 6.09888 83.5085 6.09888C82.8685 6.09888 82.3479 6.28738 81.9453 6.663C81.5427 7.03862 81.3414 7.52019 81.3414 8.10769V13.1971H78.9425V4.11072H81.3414V6.43598C81.5788 5.66135 81.9759 5.05045 82.5325 4.60466C83.1018 4.15887 83.7584 3.93598 84.5053 3.93598V3.93459ZM53.3156 10.7755L55.7672 4.11896H58.2022L53.156 16.729H50.721L52.0009 13.5232L48.2513 4.11896H50.8459L53.3156 10.7755ZM65.0241 4.11072V6.38782C64.5243 4.90185 63.2902 4.11072 61.6479 4.11072C59.1684 4.11072 57.7025 6.25711 57.7025 8.51358C57.7025 10.77 59.1574 13.0926 61.6479 13.0926C63.2902 13.0926 64.5243 11.919 65.0241 10.433V12.1762C65.0241 12.9165 64.7811 13.5259 64.2952 14.0075C63.8093 14.4891 63.2179 14.7299 62.5183 14.7299C61.5701 14.7299 60.8662 14.2607 60.4039 13.321L58.2536 14.4478C58.6562 15.188 59.2309 15.7797 59.9778 16.2268C60.7246 16.6726 61.5715 16.8955 62.5183 16.8955C63.9163 16.8955 65.0837 16.4442 66.0194 15.5389C66.955 14.635 67.423 13.5136 67.423 12.1748V4.11072H65.0241ZM64.3313 10.2403C63.869 10.6986 63.2888 10.9269 62.5904 10.9269C61.8922 10.9269 61.3466 10.6986 60.8843 10.2403C60.4221 9.77116 60.1916 9.19603 60.1916 8.51496C60.1916 7.83389 60.4221 7.26427 60.8843 6.80609C61.3466 6.34792 61.9143 6.11953 62.5904 6.11953C63.2665 6.11953 63.8705 6.34792 64.3313 6.80609C64.7936 7.25188 65.0241 7.82151 65.0241 8.51496C65.0241 9.20842 64.7936 9.78353 64.3313 10.2403Z" fill="#8A8F8F"/>
</g>
<defs>
<clipPath id="clip0_2364_5112">
<rect width="88" height="17" fill="white"/>
</clipPath>
</defs>
</svg>
