<svg width="52" height="60" viewBox="0 0 52 60" fill="none" xmlns="http://www.w3.org/2000/svg">
<path fill-rule="evenodd" clip-rule="evenodd" d="M52 17.9677H44.856V0L27.446 16.0874V0H24.554V16.0874L7.14401 0V17.9677H0V43.8557H7.12486V60L24.554 44.6154V60H27.446V44.6154L44.8751 60V43.8557H52V17.9677ZM41.9448 6.62868V17.9867H29.6678L41.9448 6.62868ZM10.0361 6.62868L22.3131 17.9867H10.0361V6.62868ZM2.89209 40.9876V20.8547H22.2748L7.12486 34.6629V40.9876H2.91124H2.89209ZM10.0169 35.9164L24.554 22.6781V40.7787L10.0169 53.5992V35.9164ZM41.9639 53.5992L27.4269 40.7787V22.6781L41.9639 35.9164V53.5992ZM49.0888 40.9876H44.8751V34.6629L29.7252 20.8547H49.1079V40.9876H49.0888Z" fill="#1FB8CD"/>
</svg>
