<svg width="389" height="49" viewBox="0 0 389 49" fill="none" xmlns="http://www.w3.org/2000/svg">
<g clip-path="url(#clip0_2709_757)">
<path fill-rule="evenodd" clip-rule="evenodd" d="M51.7871 0.064209H0V6.20549H51.7871V0.064209ZM46.6638 10.9727H5.11214V17.114H46.6638V10.9727ZM22.733 21.883H29.0432V48.8511H22.733V21.883ZM16.4229 21.883H10.1126V48.8511H16.4229V21.883ZM35.3589 21.883H41.6692V48.8511H35.3589V21.883Z" fill="white"/>
<mask id="mask0_2709_757" style="mask-type:luminance" maskUnits="userSpaceOnUse" x="68" y="8" width="321" height="33">
<path d="M388.97 8.59595H68.0195V40.3194H388.97V8.59595Z" fill="white"/>
</mask>
<g mask="url(#mask0_2709_757)">
<path d="M84.8472 13.818C78.4534 13.818 73.6065 17.4446 73.6065 24.1973C73.6065 30.9502 78.6178 35.077 85.3612 35.077C90.2748 35.077 94.7414 32.3258 95.6048 27.3587C97.0492 27.984 98.4627 28.6092 99.9429 29.1695C99.0434 37.3579 91.4622 40.2041 84.6879 40.2041C74.9583 40.1992 68.0195 33.4164 68.0195 24.1924C68.0195 14.9685 75.0868 8.84595 84.9449 8.84595C92.2023 8.84595 98.5603 12.0023 100.071 18.8151L95.4763 20.5359C94.063 15.8789 89.0824 13.783 84.8472 13.783V13.813V13.818Z" fill="white"/>
<path d="M104.57 24.5677C104.57 14.8136 110.964 8.59595 120.596 8.59595C130.228 8.59595 136.817 14.9086 136.817 24.2575C136.817 33.6065 130.392 40.2294 120.724 40.2294C111.056 40.2294 104.539 33.9467 104.539 24.5677H104.57ZM120.627 13.438C114.104 13.438 109.962 17.4697 109.962 24.1275C109.962 30.7854 114.104 35.4423 120.719 35.4423C127.334 35.4423 131.477 31.4106 131.477 24.7528C131.477 18.095 127.236 13.438 120.622 13.438H120.627Z" fill="white"/>
<path d="M169.926 39.229H143.688V9.72144H148.827V34.3518H169.926V39.229Z" fill="white"/>
<path d="M171.793 24.5677C171.793 14.8136 178.182 8.59595 187.85 8.59595C197.518 8.59595 204.071 14.9086 204.071 24.2575C204.071 33.6065 197.646 40.2294 187.978 40.2294C178.31 40.2294 171.793 33.9467 171.793 24.5677ZM187.85 13.438C181.333 13.438 177.185 17.4697 177.185 24.1275C177.185 30.7854 181.327 35.4423 187.942 35.4423C194.557 35.4423 198.7 31.4106 198.7 24.7528C198.7 18.095 194.46 13.438 187.845 13.438H187.85Z" fill="white"/>
<path d="M240.969 29.915C240.969 37.9784 232.556 40.3245 225.844 40.3245C220.735 40.3245 211.806 39.6042 210.074 31.6357L214.633 29.5097C216.561 34.447 221.346 35.1072 225.299 35.1072C228.865 35.1072 235.321 34.3869 235.321 30.3253C235.321 22.732 210.239 31.1355 210.239 18.3551C210.239 11.4472 218.622 8.72607 225.334 8.72607C232.046 8.72607 239.274 10.912 240.301 17.5398L236.03 19.1955C234.745 14.7586 229.833 13.348 225.334 13.348C221.094 13.348 216.309 14.9737 216.309 17.8799C216.309 24.8829 241.006 17.4448 241.006 29.945L240.975 29.915H240.969Z" fill="white"/>
<path d="M276.656 29.915C276.656 37.9784 268.211 40.3245 261.53 40.3245C256.427 40.3245 247.493 39.6042 245.762 31.6357L250.319 29.5097C252.248 34.447 257.033 35.1072 260.985 35.1072C264.553 35.1072 271.008 34.3869 271.008 30.3253C271.008 22.732 245.926 31.1355 245.926 18.3551C245.926 11.4472 254.308 8.72607 261.022 8.72607C267.734 8.72607 274.96 10.912 275.989 17.5398L271.718 19.1955C270.433 14.7586 265.518 13.348 261.022 13.348C256.782 13.348 251.996 14.9737 251.996 17.8799C251.996 24.8829 276.693 17.4448 276.693 29.945L276.661 29.915H276.656Z" fill="white"/>
<path d="M311.596 39.229H283.234V9.72144H310.729V14.6936H288.344V21.5363H306.94V26.5987H288.344V34.3518H311.596V39.229Z" fill="white"/>
<path d="M317.414 28.3192V9.72144H322.554V27.1639C322.554 32.3511 325.638 35.2271 332.125 35.2271C338.611 35.2271 341.695 32.3511 341.695 27.1639V9.72144H346.835V28.3192C346.835 35.4472 341.31 40.2893 332.125 40.2893C322.939 40.2893 317.414 35.4423 317.414 28.3192Z" fill="white"/>
<path d="M371.789 30.4452L382.454 9.72144H388.971V39.229H383.831V18.6302C381.745 22.4418 375.129 35.4472 373.039 39.259H370.565L359.808 18.6302V39.1989H354.668V9.72144H361.154C363.24 13.6281 369.764 26.5686 371.819 30.4452H371.789Z" fill="white"/>
</g>
</g>
<defs>
<clipPath id="clip0_2709_757">
<rect width="389" height="49" fill="white"/>
</clipPath>
</defs>
</svg>
