<?xml version="1.0" encoding="utf-8"?>
<!-- Generator: Adobe Illustrator 25.4.1, SVG Export Plug-In . SVG Version: 6.00 Build 0)  -->
<svg version="1.1" id="Layer_1" xmlns="http://www.w3.org/2000/svg" xmlns:xlink="http://www.w3.org/1999/xlink" x="0px" y="0px"
	 viewBox="0 0 736 260" style="enable-background:new 0 0 736 260;" xml:space="preserve">
<style type="text/css">
	.st0{clip-path:url(#SVGID_00000086661627824013816180000013966486808816851603_);}
</style>
<g>
	<defs>
		<rect id="SVGID_1_" width="736" height="260"/>
	</defs>
	<clipPath id="SVGID_00000085948181035882532360000005455033329652264883_">
		<use xlink:href="#SVGID_1_"  style="overflow:visible;"/>
	</clipPath>
	<g style="clip-path:url(#SVGID_00000085948181035882532360000005455033329652264883_);">
		<path d="M598.3,258.9c5.8-0.4,11.4-2.7,15.7-6.7l0,0c28.7-28.8,57.5-57.4,86.5-85.8c8.1-7.9,16.3-15.7,24.7-23.6
			c5.2-4.9,1.7-13.5-5.5-13.5c0,0-0.1,0-0.1,0c-25.6-0.2-51.2-0.4-76.8,0.2c-9.1,0.2-11.7-2.5-11.5-11.6c0.6-35.6,0-71.2,0.4-106.8
			c0.1-8.4-2.2-11.4-11-11.1c-19.5,0.6-39,0.6-58.5,0c-8.1-0.2-13.5,2.7-19,8.2C506.5,45,469.6,81.6,432.6,118.1v0
			c-3.1,3.4-8.7,1.2-8.7-3.4v0c-0.1-34.1-0.4-68.2,0.2-102.3c0.2-9.9-3.4-12.5-12.6-12.3c-19.1,0.4-38.2,0.4-57.3,0
			c-2.8-0.1-5.6,0.3-8.3,1c0,0,0,0,0,0c-6.2,0.5-12,3.4-16.1,8.1C293.1,46,256.2,82.6,219.1,119.1l-0.4,0.4c-3.2,3-8.4,0.6-8.3-3.8
			v0c-0.1-34.1-0.4-68.2,0.2-102.3c0.2-9.9-3.4-12.5-12.6-12.3c-24.5,0-36.8,0-57.3,0l0,0c-7.5,0.1-14.7,3.1-20.1,8.4l-0.1,0.1
			C96.5,33.9,72.2,58,47.8,81.9c-12.1,11.9-24.5,23.5-37.3,35.7c-4.9,4.7-1.6,13,5.2,13h0c24.8,0.1,49.7,0.1,74.5,0
			c15.3,0,15.3,0,15.3,15.7c0,34.1,0.2,68.2-0.2,102.3c-0.1,8.1,1.8,11.7,10.8,11.4c20.1,0,36.9,0,60.8,0c2.8,0,5.7-0.5,8.3-1.7
			c2.6-1.1,4.9-2.8,6.8-4.9c37.7-37.5,75.4-75,113.3-112.3l0.3-0.2c3.2-2.5,7.9-0.1,7.8,4v0c0.1,34.5,0.4,68.9-0.2,103.4
			c-0.1,9.2,3,12,11.8,11.8c19.9-0.4,39.7-0.3,59.6,0c2.6,0.1,5.1-0.3,7.6-1.1c0,0,0,0,0,0c5.1-0.4,9.9-2.7,13.3-6.5
			c37.7-37.5,75.4-75,113.3-112.3l0.3-0.2c3.2-2.3,7.8,0,7.8,4v0c0.1,34.5,0.4,68.9-0.2,103.4c-0.1,9.2,3,12,11.8,11.8
			c21.7,0,39.4,0,59.6,0L598.3,258.9z"/>
	</g>
</g>
</svg>
